<svg xmlns="http://www.w3.org/2000/svg" viewBox="0 0 91.62 80.93"><defs><style>.cls-1{fill:#000008;}</style></defs><title>Asset 1</title><g id="Layer_2" data-name="Layer 2"><g id="footer"><path class="cls-1" d="M0,55.17C8.78,70.5,26.06,80.93,46,80.93c19.68,0,36.81-10.21,45.67-25.27C81.28,67.63,64.7,75.38,46,75.38c-18.94,0-35.71-8-46-20.21M64.31,24.45A29.62,29.62,0,0,1,67,28L56.93,63h-.68L50.69,48.84l1.9-5,3.52,8.93ZM53.79,27h3.72L46,57H44.84l-3-7.94,1.77-4.64,1.83,5ZM38.29,39.89,33.41,27h3.74l3,8.15ZM45,27h.75l3.24,8.2-1.86,5-1.73-4.39L34.44,63h-.67L24.14,29.09a24.72,24.72,0,0,1,2.65-3.68l7.82,27.51Zm.72,43a29.54,29.54,0,1,1,0-59.08A30,30,0,0,1,70.52,24l-2.91,2.76a26,26,0,0,0-47.9,13.69,25.79,25.79,0,0,0,26,25.63c15.62,0,24.85-12,25.91-24.12h-7l1.06-4H75.72c1.56,15.94-10.67,32-30,32m.14,3.62A33.49,33.49,0,0,0,79.54,40.38,33.49,33.49,0,0,0,45.81,7.14,33.48,33.48,0,0,0,12.09,40.38,33.49,33.49,0,0,0,45.81,73.63M91.62,25.76C82.84,10.43,65.56,0,45.67,0,26,0,8.87,10.21,0,25.27,10.34,13.3,26.92,5.55,45.61,5.55c18.94,0,35.7,8,46,20.21"/></g></g></svg>